<svg width="34" height="34" viewBox="0 0 34 34" fill="none" xmlns="http://www.w3.org/2000/svg">
<path id="Vector" d="M14.9845 14.7095C12.0641 17.1582 10.087 17.0312 8.56336 16.5596C7.20295 16.1606 6.35043 15.5801 6.00579 14.782C5.4979 13.6756 5.96951 12.1701 6.18718 11.6803C7.16667 9.75759 8.67219 8.14324 10.5223 7.01864C12.3725 5.89403 14.5129 5.31359 16.6895 5.31359C18.9569 5.31359 21.188 5.94845 23.0925 7.18188C20.6801 9.5762 17.7779 12.3514 14.9845 14.7095ZM4.80863 28.6763C7.89222 31.5423 11.9916 33.1385 16.2361 33.1385C20.6619 33.1385 24.8883 31.3972 28.0263 28.3136C31.1461 25.23 32.9056 21.0581 32.9237 16.7047C32.9237 13.3309 31.8717 10.0478 29.9127 7.29072C31.2913 5.85775 32.1619 4.8964 32.2707 4.78756L32.4521 4.60618L32.8693 4.15271C33.0144 4.0076 33.1233 3.82621 33.1958 3.62668C33.2684 3.42716 33.3047 3.22763 33.2865 3.00996C33.2684 2.81044 33.2321 2.59277 33.1414 2.41138C33.0144 2.21186 32.8875 2.04861 32.7242 1.9035L31.4001 0.724476C31.2368 0.579366 31.0554 0.470533 30.8741 0.416117C30.6745 0.343562 30.475 0.307284 30.2573 0.325423C30.0397 0.343562 29.8402 0.37984 29.6588 0.470533C29.4774 0.561227 29.296 0.688199 29.1509 0.833309L28.7337 1.28678L28.5523 1.48631C28.5342 1.50444 27.7723 2.33883 26.557 3.60854C23.6911 1.52258 20.2266 0.416117 16.6714 0.416117C13.5697 0.416117 10.5223 1.2505 7.89222 2.86485C5.24396 4.49734 3.12172 6.80097 1.74317 9.53993L1.72504 9.5762C1.54365 9.95712 -0.0525646 13.3853 1.45295 16.7592C2.10595 18.2284 3.62961 20.2055 7.11226 21.2576C8.12803 21.5659 9.18008 21.7292 10.2503 21.7292C12.9529 21.7292 15.5831 20.6409 18.2132 18.4279C21.0428 16.0336 23.945 13.2947 26.3575 10.8822C27.4096 12.6417 27.9537 14.6551 27.9537 16.7047C27.9537 19.7702 26.7203 22.6905 24.5073 24.8672C22.2944 27.0439 19.3378 28.241 16.2179 28.2592C13.225 28.2592 10.3591 27.1527 8.18244 25.1211L7.98292 24.9398L7.52945 24.5226C7.38434 24.3775 7.20295 24.2686 7.00342 24.1961C6.8039 24.1235 6.60437 24.0872 6.3867 24.1054C6.16904 24.1054 5.96951 24.1598 5.78812 24.2505C5.5886 24.3412 5.42535 24.45 5.28024 24.6133L4.06494 25.9011C3.91983 26.0462 3.811 26.2276 3.73844 26.4271C3.66589 26.6267 3.62961 26.8262 3.62961 27.0257C3.62961 27.2252 3.68402 27.4429 3.77472 27.6243C3.86541 27.8057 3.99238 27.9871 4.13749 28.114L4.59096 28.5312L4.80863 28.6763Z" fill="#2962FF"/>
</svg>
