<svg width="101" height="34" viewBox="0 0 101 34" fill="none" xmlns="http://www.w3.org/2000/svg">
<g id="Group">
<path id="Vector" d="M23.2072 17.3359C23.2072 14.1797 21.0124 11.8398 17.965 11.8398C14.9177 11.8398 12.6867 14.1797 12.6867 17.3359C12.6867 20.492 14.8814 22.8138 17.965 22.8138C21.0486 22.8138 23.2072 20.5102 23.2072 17.3359ZM7.78918 17.3359C7.78918 11.7491 12.1062 7.55908 17.9832 7.55908C23.8602 7.55908 28.1409 11.7673 28.1409 17.3359C28.1409 22.9045 23.8602 27.1127 17.9832 27.1127C12.1062 27.1308 7.78918 22.9226 7.78918 17.3359Z" fill="#2962FF"/>
<path id="Vector_2" d="M44.5925 17.3359C44.5925 14.1797 42.3977 11.8398 39.3504 11.8398C36.3031 11.8398 34.072 14.1797 34.072 17.3359C34.072 20.492 36.2668 22.8138 39.3504 22.8138C42.434 22.8138 44.6107 20.5102 44.5925 17.3359ZM29.1746 17.3359C29.1746 11.7491 33.4916 7.55908 39.3686 7.55908C45.2455 7.55908 49.5263 11.7673 49.5263 17.3359C49.5263 22.9045 45.2455 27.1127 39.3686 27.1127C33.4916 27.1308 29.1746 22.9226 29.1746 17.3359Z" fill="#2962FF"/>
<path id="Vector_3" d="M66.7036 17.3362C66.7036 14.2888 64.6539 11.8401 61.5341 11.8401C58.7407 11.8401 56.4371 13.8172 56.4371 17.3362C56.4371 20.8732 58.7225 22.8141 61.5341 22.8141C64.6721 22.8141 66.7036 20.3835 66.7036 17.3362ZM71.6555 17.3362C71.6555 22.7597 67.7557 27.113 62.2777 27.113C60.2825 27.1311 58.3235 26.4781 56.7273 25.2447V32.2644C56.7273 33.1532 56.2375 33.6792 55.3487 33.6792H53.1902C52.3014 33.6792 51.7754 33.1532 51.7754 32.2644V9.2644C51.7754 8.3756 52.3014 7.84957 53.1902 7.84957H54.5688C55.4576 7.84957 56.0017 8.3756 56.0017 9.2644V10.0444C57.7068 8.43002 59.956 7.54122 62.2777 7.55935C67.7557 7.55935 71.6555 11.8764 71.6555 17.3362Z" fill="#2962FF"/>
<path id="Vector_4" d="M73.9229 25.1935V9.26761C73.9229 8.37881 74.4489 7.85278 75.3558 7.85278H77.4962C78.385 7.85278 78.8747 8.37881 78.8747 9.26761V25.1935C78.8747 26.0823 78.385 26.6446 77.4962 26.6446H75.3377C74.4489 26.6446 73.9229 26.0823 73.9229 25.1935Z" fill="#2962FF"/>
<path id="Vector_5" d="M100.188 15.522V25.19C100.188 26.0788 99.6979 26.6411 98.8091 26.6411H96.6505C95.7617 26.6411 95.2176 26.0788 95.2176 25.19V15.8848C95.2176 13.436 93.7302 11.7854 91.3178 11.7854C88.9053 11.7854 87.2547 13.4179 87.2547 15.8848V25.19C87.2547 26.0788 86.7649 26.6411 85.8761 26.6411H83.7357C82.8469 26.6411 82.3209 26.0788 82.3209 25.19V9.26413C82.3209 8.37533 82.8469 7.8493 83.7357 7.8493H85.1687C86.0575 7.8493 86.5835 8.37533 86.5835 9.26413V10.5338C87.817 8.75624 89.776 7.55908 92.5331 7.55908C97.1403 7.55908 100.188 10.7515 100.188 15.522Z" fill="#2962FF"/>
<path id="Vector_6" d="M5.3944 1.84637V25.3724C5.3944 26.2249 4.92279 26.7872 4.07027 26.7872H1.98431C1.13179 26.7872 0.623901 26.243 0.623901 25.3724V3.42444C0.623901 3.1705 0.696455 2.91655 0.841565 2.69889C0.986675 2.48122 1.1862 2.31797 1.40387 2.20914L4.08841 0.975704C4.23352 0.903149 4.37863 0.88501 4.54188 0.88501C4.70513 0.903149 4.85024 0.939426 4.97721 1.03012C5.10418 1.12081 5.21301 1.22965 5.28557 1.37476C5.37626 1.53801 5.41254 1.68312 5.3944 1.84637Z" fill="#2962FF"/>
</g>
</svg>
