<svg width="48" height="49" viewBox="0 0 48 49" fill="none" xmlns="http://www.w3.org/2000/svg">
<g id="Social Icons" clip-path="url(#clip0_252_2441)">
<path id="Vector" d="M44.4567 0.239502H3.54333C2.60358 0.239502 1.70232 0.612817 1.03782 1.27732C0.373315 1.94182 0 2.84309 0 3.78284V44.6962C0 45.6359 0.373315 46.5372 1.03782 47.2017C1.70232 47.8662 2.60358 48.2395 3.54333 48.2395H44.4567C45.3964 48.2395 46.2977 47.8662 46.9622 47.2017C47.6267 46.5372 48 45.6359 48 44.6962V3.78284C48 2.84309 47.6267 1.94182 46.9622 1.27732C46.2977 0.612817 45.3964 0.239502 44.4567 0.239502ZM14.3067 41.1295H7.09V18.2062H14.3067V41.1295ZM10.6933 15.0295C9.87473 15.0249 9.07583 14.7779 8.39747 14.3197C7.71911 13.8615 7.19168 13.2126 6.88175 12.4549C6.57183 11.6972 6.4933 10.8647 6.65606 10.0624C6.81883 9.26014 7.2156 8.52406 7.79631 7.94706C8.37702 7.37007 9.11563 6.97804 9.91893 6.82042C10.7222 6.66281 11.5542 6.74669 12.3099 7.06147C13.0656 7.37626 13.7111 7.90784 14.1649 8.58913C14.6188 9.27042 14.8606 10.0709 14.86 10.8895C14.8677 11.4376 14.765 11.9816 14.558 12.4891C14.351 12.9966 14.044 13.4573 13.6551 13.8436C13.2663 14.23 12.8037 14.5341 12.2948 14.7378C11.786 14.9415 11.2413 15.0407 10.6933 15.0295ZM40.9067 41.1495H33.6933V28.6262C33.6933 24.9328 32.1233 23.7928 30.0967 23.7928C27.9567 23.7928 25.8567 25.4062 25.8567 28.7195V41.1495H18.64V18.2228H25.58V21.3995H25.6733C26.37 19.9895 28.81 17.5795 32.5333 17.5795C36.56 17.5795 40.91 19.9695 40.91 26.9695L40.9067 41.1495Z" fill="#0A66C2"/>
</g>
<defs>
<clipPath id="clip0_252_2441">
<rect width="48" height="48" fill="white" transform="translate(0 0.239502)"/>
</clipPath>
</defs>
</svg>
