<svg width="75" height="75" viewBox="0 0 75 75" fill="none" xmlns="http://www.w3.org/2000/svg">
<path id="Vector" d="M32.7899 33.1843C26.1362 38.7059 21.6314 38.4196 18.1599 37.3562C15.0604 36.4563 13.118 35.1475 12.3327 33.3479C11.1756 30.8529 12.2501 27.4582 12.746 26.3538C14.9777 22.0184 18.4079 18.3782 22.6233 15.8423C26.8387 13.3065 31.7154 11.9977 36.6747 11.9977C41.8406 11.9977 46.9239 13.4292 51.2633 16.2104C45.7668 21.6093 39.1544 27.8672 32.7899 33.1843ZM9.60511 64.6779C16.6308 71.1402 25.9708 74.7395 35.6415 74.7395C45.7254 74.7395 55.3548 70.813 62.5045 63.8599C69.6128 56.9067 73.6216 47.4996 73.6629 37.6834C73.6629 30.0758 71.2659 22.6728 66.8025 16.4558C69.9434 13.2247 71.9272 11.0569 72.1751 10.8115L72.5884 10.4025L73.5389 9.38C73.8696 9.05279 74.1175 8.64378 74.2828 8.19387C74.4481 7.74396 74.5308 7.29406 74.4895 6.80325C74.4481 6.35334 74.3655 5.86253 74.1588 5.45352C73.8696 5.00361 73.5803 4.6355 73.2083 4.3083L70.1914 1.64974C69.8195 1.32254 69.4062 1.07713 68.9929 0.954429C68.5383 0.790826 68.0837 0.709024 67.5878 0.749925C67.0918 0.790826 66.6372 0.872627 66.2239 1.07713C65.8107 1.28164 65.3974 1.56794 65.0668 1.89515L64.1162 2.91767L63.703 3.36758C63.6616 3.40848 61.9259 5.28992 59.1569 8.15297C52.6272 3.44938 44.7336 0.954429 36.6334 0.954429C29.5663 0.954429 22.6233 2.83587 16.6308 6.47604C10.597 10.1571 5.76164 15.3515 2.62074 21.5275L2.57941 21.6093C2.16613 22.4683 -1.4707 30.1985 1.9595 37.8061C3.44729 41.119 6.91881 45.5772 14.8537 47.9495C17.1681 48.6448 19.5651 49.0129 22.0034 49.0129C28.1612 49.0129 34.1537 46.5588 40.1462 41.5689C46.5933 36.17 53.2057 29.994 58.7023 24.5542C61.0993 28.5216 62.3391 33.0616 62.3391 37.6834C62.3391 44.5956 59.5289 51.1806 54.4869 56.0887C49.4449 60.9968 42.7085 63.6963 35.6002 63.7372C28.7811 63.7372 22.2514 61.2422 17.292 56.6613L16.8374 56.2523L15.8042 55.3116C15.4736 54.9844 15.0604 54.739 14.6057 54.5754C14.1511 54.4118 13.6965 54.33 13.2006 54.3709C12.7047 54.3709 12.2501 54.4936 11.8368 54.6981C11.3822 54.9026 11.0102 55.148 10.6796 55.5161L7.91067 58.4201C7.58005 58.7473 7.33209 59.1563 7.16678 59.6062C7.00147 60.0561 6.91881 60.506 6.91881 60.9559C6.91881 61.4058 7.04279 61.8966 7.24943 62.3057C7.45607 62.7147 7.74536 63.1237 8.07598 63.41L9.10917 64.3507L9.60511 64.6779Z" fill="white"/>
</svg>
