<svg width="103" height="25" viewBox="0 0 103 25" fill="none" xmlns="http://www.w3.org/2000/svg">
<g id="Group">
<path id="Vector" d="M9.70723 9.85557C7.70693 11.5328 6.35269 11.4459 5.30906 11.1228C4.37724 10.8495 3.7933 10.4519 3.55724 9.90527C3.20937 9.14739 3.53239 8.11618 3.68149 7.78073C4.35239 6.46376 5.3836 5.358 6.65087 4.5877C7.91814 3.8174 9.3842 3.41983 10.8751 3.41983C12.4281 3.41983 13.9563 3.85467 15.2609 4.69952C13.6084 6.33952 11.6206 8.24042 9.70723 9.85557ZM2.73725 19.4222C4.84936 21.3852 7.65724 22.4786 10.5645 22.4786C13.596 22.4786 16.4909 21.2859 18.6402 19.1737C20.7772 17.0616 21.9824 14.204 21.9948 11.2222C21.9948 8.91133 21.2742 6.66255 19.9324 4.77407C20.8766 3.79255 21.473 3.13407 21.5475 3.05952L21.6718 2.93528L21.9575 2.62468C22.0569 2.52528 22.1314 2.40104 22.1811 2.26437C22.2308 2.12771 22.2557 1.99104 22.2433 1.84195C22.2308 1.70528 22.206 1.55619 22.1439 1.43195C22.0569 1.29528 21.9699 1.18347 21.8581 1.08407L20.9511 0.276499C20.8393 0.177105 20.7151 0.10256 20.5908 0.0652872C20.4542 0.0155903 20.3175 -0.00925811 20.1684 0.00316611C20.0193 0.0155903 19.8827 0.0404388 19.7584 0.10256C19.6342 0.164681 19.5099 0.25165 19.4105 0.351044L19.1248 0.66165L19.0005 0.798316C18.9881 0.81074 18.4663 1.38225 17.6339 2.25195C15.6709 0.823164 13.2978 0.0652872 10.8627 0.0652872C8.73814 0.0652872 6.65087 0.636801 4.84936 1.74256C3.03543 2.86074 1.58179 4.43861 0.637552 6.31467L0.625128 6.33952C0.500886 6.60043 -0.592445 8.9486 0.438765 11.2595C0.886037 12.2659 1.92967 13.6201 4.31512 14.3407C5.01088 14.5519 5.73148 14.6637 6.46451 14.6637C8.31572 14.6637 10.1172 13.9183 11.9187 12.4025C13.8569 10.7625 15.8448 8.88648 17.4972 7.23406C18.2178 8.43921 18.5905 9.8183 18.5905 11.2222C18.5905 13.3219 17.7457 15.3222 16.2299 16.8131C14.7142 18.304 12.689 19.124 10.5521 19.1365C8.50208 19.1365 6.53906 18.3786 5.04815 16.9871L4.91148 16.8628L4.60088 16.5771C4.50148 16.4777 4.37724 16.4031 4.24058 16.3534C4.10391 16.3037 3.96724 16.2789 3.81815 16.2913C3.66906 16.2913 3.53239 16.3286 3.40815 16.3907C3.27149 16.4528 3.15967 16.5274 3.06027 16.6392L2.22785 17.5213C2.12846 17.6207 2.05391 17.745 2.00422 17.8816C1.95452 18.0183 1.92967 18.1549 1.92967 18.2916C1.92967 18.4283 1.96694 18.5774 2.02906 18.7016C2.09119 18.8259 2.17816 18.9501 2.27755 19.0371L2.58815 19.3228L2.73725 19.4222Z" fill="#2962FF"/>
<g id="Group_2">
<path id="Vector_2" d="M50.2719 13.0192C50.2719 10.8573 48.7686 9.25462 46.6813 9.25462C44.594 9.25462 43.0658 10.8573 43.0658 13.0192C43.0658 15.181 44.5692 16.7713 46.6813 16.7713C48.7934 16.7713 50.2719 15.1934 50.2719 13.0192ZM39.7113 13.0192C39.7113 9.1925 42.6683 6.32251 46.6937 6.32251C50.7192 6.32251 53.6513 9.20493 53.6513 13.0192C53.6513 16.8334 50.7192 19.7158 46.6937 19.7158C42.6683 19.7282 39.7113 16.8458 39.7113 13.0192Z" fill="#2962FF"/>
<path id="Vector_3" d="M64.92 13.0192C64.92 10.8573 63.4166 9.25462 61.3294 9.25462C59.2421 9.25462 57.7139 10.8573 57.7139 13.0192C57.7139 15.181 59.2172 16.7713 61.3294 16.7713C63.4415 16.7713 64.9324 15.1934 64.92 13.0192ZM54.3594 13.0192C54.3594 9.1925 57.3163 6.32251 61.3418 6.32251C65.3672 6.32251 68.2993 9.20493 68.2993 13.0192C68.2993 16.8334 65.3672 19.7158 61.3418 19.7158C57.3163 19.7282 54.3594 16.8458 54.3594 13.0192Z" fill="#2962FF"/>
<path id="Vector_4" d="M80.065 13.0193C80.065 10.9321 78.661 9.25481 76.5241 9.25481C74.6107 9.25481 73.0329 10.6091 73.0329 13.0193C73.0329 15.4421 74.5983 16.7715 76.5241 16.7715C78.6735 16.7715 80.065 15.1066 80.065 13.0193ZM83.4568 13.0193C83.4568 16.7342 80.7856 19.716 77.0335 19.716C75.6668 19.7284 74.325 19.2812 73.2317 18.4363V23.2445C73.2317 23.8533 72.8962 24.2136 72.2874 24.2136H70.8089C70.2001 24.2136 69.8398 23.8533 69.8398 23.2445V7.49057C69.8398 6.88179 70.2001 6.52148 70.8089 6.52148H71.7532C72.362 6.52148 72.7347 6.88179 72.7347 7.49057V8.02481C73.9026 6.91906 75.4432 6.31027 77.0335 6.3227C80.7856 6.3227 83.4568 9.27966 83.4568 13.0193Z" fill="#2962FF"/>
<path id="Vector_5" d="M85.0098 18.4034V7.49497C85.0098 6.88618 85.3701 6.52588 85.9913 6.52588H87.4573C88.0661 6.52588 88.4016 6.88618 88.4016 7.49497V18.4034C88.4016 19.0122 88.0661 19.3974 87.4573 19.3974H85.9789C85.3701 19.3974 85.0098 19.0122 85.0098 18.4034Z" fill="#2962FF"/>
<path id="Vector_6" d="M103 11.7767V18.3989C103 19.0076 102.664 19.3928 102.056 19.3928H100.577C99.9684 19.3928 99.5957 19.0076 99.5957 18.3989V12.0252C99.5957 10.348 98.5769 9.21735 96.9245 9.21735C95.2721 9.21735 94.1415 10.3355 94.1415 12.0252V18.3989C94.1415 19.0076 93.806 19.3928 93.1972 19.3928H91.7312C91.1224 19.3928 90.7621 19.0076 90.7621 18.3989V7.49039C90.7621 6.8816 91.1224 6.5213 91.7312 6.5213H92.7127C93.3215 6.5213 93.6818 6.8816 93.6818 7.49039V8.36008C94.5266 7.14251 95.8684 6.32251 97.7569 6.32251C100.913 6.32251 103 8.50917 103 11.7767Z" fill="#2962FF"/>
<path id="Vector_7" d="M38.071 2.41117V18.5254C38.071 19.1093 37.748 19.4945 37.1641 19.4945H35.7353C35.1513 19.4945 34.8035 19.1217 34.8035 18.5254V3.49208C34.8035 3.31814 34.8532 3.1442 34.9526 2.99511C35.0519 2.84602 35.1886 2.7342 35.3377 2.65965L37.1765 1.81481C37.2759 1.76511 37.3753 1.75269 37.4871 1.75269C37.5989 1.76511 37.6983 1.78996 37.7853 1.85208C37.8722 1.9142 37.9468 1.98875 37.9965 2.08814C38.0586 2.19996 38.0835 2.29935 38.071 2.41117Z" fill="#2962FF"/>
</g>
</g>
</svg>
