<svg width="48" height="49" viewBox="0 0 48 49" fill="none" xmlns="http://www.w3.org/2000/svg">
<g id="Social Icons">
<path id="Vector" d="M15.095 43.7408C33.2083 43.7408 43.1155 28.7341 43.1155 15.7203C43.1155 15.2941 43.1155 14.8697 43.0867 14.4473C45.0141 13.0532 46.6778 11.3271 48 9.34974C46.2028 10.1465 44.2961 10.6688 42.3437 10.8992C44.3996 9.66856 45.9383 7.73274 46.6733 5.45214C44.7402 6.59935 42.6253 7.40779 40.4198 7.84254C38.935 6.26369 36.9712 5.21822 34.8324 4.86791C32.6935 4.51759 30.4988 4.88197 28.5879 5.90464C26.677 6.92732 25.1564 8.55129 24.2615 10.5252C23.3665 12.4992 23.1471 14.7131 23.6371 16.8243C19.7218 16.6279 15.8915 15.6104 12.3949 13.8377C8.89831 12.0651 5.81353 9.57706 3.3408 6.53502C2.08146 8.70301 1.69574 11.2695 2.2622 13.7119C2.82865 16.1543 4.30468 18.2889 6.38976 19.6813C4.82246 19.6353 3.2893 19.2125 1.92 18.4486V18.5734C1.92062 20.8471 2.7077 23.0506 4.14774 24.8102C5.58778 26.5697 7.59212 27.777 9.8208 28.2272C8.37096 28.6227 6.84975 28.6805 5.37408 28.3961C6.00363 30.3528 7.22886 32.0638 8.87848 33.29C10.5281 34.5162 12.5197 35.1963 14.5747 35.2352C12.5329 36.8401 10.1946 38.0268 7.69375 38.7272C5.19287 39.4276 2.57843 39.6281 0 39.3171C4.50367 42.2071 9.74385 43.7401 15.095 43.7331" fill="#1DA1F2"/>
</g>
</svg>
